<svg version="1.0" xmlns="http://www.w3.org/2000/svg"
 width="75" height="75" viewBox="0 0 1024.000000 1024.000000"
 preserveAspectRatio="xMidYMid meet">

<g transform="translate(0.000000,1024.000000) scale(0.100000,-0.100000)"
fill="#000000" stroke="none">
<path d="M5085 9238 c-61 -33 -85 -74 -148 -245 -42 -115 -87 -189 -157 -263
-73 -76 -136 -114 -310 -189 -193 -82 -237 -131 -210 -231 16 -60 59 -92 206
-155 161 -69 240 -118 314 -195 75 -79 115 -149 171 -302 26 -71 58 -145 70
-163 78 -114 230 -78 283 67 68 188 87 234 117 284 19 32 66 91 105 130 58 59
89 80 175 122 57 27 134 62 171 77 103 41 146 73 165 123 13 35 14 49 4 81
-18 60 -57 93 -166 140 -215 92 -265 121 -351 206 -90 89 -131 160 -190 322
-43 119 -65 156 -108 182 -37 23 -108 28 -141 9z m149 -583 c49 -83 161 -186
256 -234 45 -23 107 -48 137 -57 l54 -16 -80 -28 c-213 -73 -363 -224 -435
-437 l-22 -67 -14 50 c-18 66 -72 175 -117 236 -73 100 -240 210 -359 237 -23
5 -33 10 -24 14 8 2 50 17 93 32 196 69 337 218 403 427 l17 57 32 -82 c17
-46 44 -105 59 -132z"/>
<path d="M3995 8685 c-305 -85 -631 -228 -928 -407 -724 -438 -1329 -1179
-1619 -1983 -89 -246 -149 -465 -179 -648 -12 -70 -15 -78 -39 -84 -119 -28
-248 -131 -296 -236 -26 -57 -29 -72 -29 -172 0 -100 3 -115 29 -167 45 -91
144 -176 258 -222 33 -13 38 -19 38 -48 0 -61 30 -292 56 -428 144 -767 499
-1444 1044 -1990 332 -333 664 -568 1092 -775 308 -148 584 -247 868 -310 244
-55 272 -46 230 72 -22 59 -25 85 -24 188 0 104 4 130 27 194 33 91 33 112 5
146 -18 21 -47 32 -138 55 -398 99 -849 322 -1234 608 -122 91 -365 307 -411
365 -11 14 -61 72 -110 129 -289 331 -516 765 -629 1200 -47 180 -66 283 -75
413 -10 129 -27 172 -95 232 -57 50 -136 77 -292 98 -230 31 -306 56 -363 117
-40 43 -54 88 -49 153 3 39 12 64 32 90 71 92 182 120 530 129 l178 4 37 -33
c32 -30 36 -39 35 -79 -1 -55 -22 -81 -74 -97 -55 -17 -104 2 -136 52 l-24 39
-155 0 c-170 0 -209 -9 -238 -53 -33 -51 -13 -107 47 -132 17 -7 94 -18 171
-25 96 -8 151 -17 175 -30 212 -109 458 37 437 260 -8 95 -68 186 -153 236
-24 14 -44 29 -44 32 0 4 11 57 25 117 164 725 630 1436 1235 1882 212 156
529 331 766 422 60 23 121 47 136 52 44 18 42 37 -11 95 -131 143 -106 334 60
461 53 40 62 68 31 96 -26 24 -60 21 -197 -18z m-211 -392 c3 -27 9 -59 12
-73 5 -23 -1 -28 -83 -64 -130 -57 -301 -149 -443 -237 -757 -468 -1339 -1284
-1546 -2166 l-29 -123 -46 0 c-26 0 -61 3 -78 6 -30 6 -31 8 -25 43 28 157
111 437 186 626 179 450 454 864 829 1245 258 263 544 471 884 644 131 66 308
145 326 146 3 0 9 -21 13 -47z m-2088 -3597 c70 -70 26 -175 -73 -176 -79 0
-133 78 -103 151 18 41 47 59 98 59 37 0 50 -6 78 -34z m28 -473 c67 -282 144
-490 280 -763 271 -542 650 -968 1171 -1317 274 -184 663 -368 1009 -479 l88
-29 -6 -69 c-4 -39 -8 -71 -10 -73 -6 -7 -218 58 -341 105 -731 276 -1298 696
-1744 1292 -203 271 -391 632 -508 975 -42 122 -111 391 -120 463 l-6 52 74 0
75 0 38 -157z"/>
<path d="M6110 8700 c-31 -31 -24 -51 31 -95 163 -128 187 -332 54 -472 -58
-61 -57 -62 126 -138 466 -194 892 -488 1208 -836 408 -448 683 -983 797
-1549 15 -74 30 -139 34 -143 9 -11 115 69 168 126 53 59 54 78 8 252 -207
784 -695 1490 -1354 1962 -130 93 -336 214 -520 304 -133 66 -162 84 -157 97
4 9 11 41 17 70 13 62 1 63 168 -13 557 -252 1070 -676 1436 -1188 286 -399
498 -876 588 -1319 39 -196 43 -169 -45 -355 -55 -115 -74 -129 -257 -184
-125 -38 -174 -121 -122 -206 24 -39 78 -68 166 -89 132 -30 180 -73 235 -206
35 -84 50 -103 89 -113 41 -10 76 27 121 124 59 128 96 159 229 196 157 42
218 114 172 203 -25 49 -69 77 -168 108 -46 14 -93 33 -105 43 -21 17 -22 21
-11 58 18 60 15 130 -13 308 -90 574 -360 1191 -731 1675 -415 540 -902 926
-1505 1194 -161 72 -362 144 -508 182 -113 29 -125 30 -151 4z m2772 -3555
c24 -20 62 -41 86 -48 42 -11 57 -27 25 -27 -10 0 -41 -11 -68 -24 -52 -24
-98 -74 -117 -127 l-10 -30 -23 48 c-29 64 -82 109 -152 129 l-58 17 40 12
c22 6 54 19 71 28 39 20 103 93 111 126 6 23 7 21 29 -21 13 -25 43 -62 66
-83z"/>
<path d="M4429 7451 c-21 -21 -29 -39 -29 -63 0 -29 86 -350 171 -640 24 -83
55 -112 112 -105 43 6 82 37 91 72 5 20 -34 166 -180 673 -25 89 -107 120
-165 63z"/>
<path d="M5736 7455 c-14 -13 -26 -26 -26 -29 0 -3 -15 -56 -34 -118 -107
-356 -159 -537 -164 -570 -4 -31 0 -42 26 -68 23 -23 39 -30 69 -30 51 0 78
20 97 72 36 98 188 646 188 678 0 26 -7 41 -31 62 -40 36 -88 37 -125 3z"/>
<path d="M3883 7320 c-23 -9 -53 -57 -53 -85 0 -22 318 -656 343 -682 22 -25
83 -31 118 -13 28 16 52 68 46 104 -7 41 -307 623 -340 659 -26 28 -69 35
-114 17z"/>
<path d="M6293 7303 c-14 -16 -97 -169 -185 -342 -178 -350 -180 -357 -118
-413 37 -34 77 -36 114 -7 42 33 346 647 346 698 0 83 -102 125 -157 64z"/>
<path d="M3313 7145 c-33 -14 -63 -59 -63 -95 0 -30 23 -71 78 -137 27 -32
124 -152 217 -268 194 -243 213 -264 242 -275 35 -14 92 7 113 43 40 65 37 72
-156 309 -63 79 -161 200 -217 269 -94 116 -149 170 -173 169 -5 -1 -23 -7
-41 -15z"/>
<path d="M5076 7135 l-26 -24 0 -200 0 -199 31 -26 c17 -14 42 -26 55 -26 33
0 81 25 94 49 6 12 10 97 10 206 l0 187 -29 29 c-39 38 -96 40 -135 4z"/>
<path d="M6866 7117 c-23 -23 -120 -141 -216 -262 -288 -361 -275 -342 -275
-390 0 -76 70 -124 134 -91 17 9 85 87 158 178 70 90 180 230 245 311 109 137
118 152 118 191 0 46 -23 80 -67 97 -41 15 -55 11 -97 -34z"/>
<path d="M2820 6811 c-36 -36 -46 -71 -28 -107 18 -40 425 -386 496 -423 54
-29 142 26 142 89 0 55 25 31 -339 329 -149 122 -177 141 -207 141 -26 0 -44
-8 -64 -29z"/>
<path d="M7366 6828 c-54 -31 -483 -393 -497 -419 -15 -28 6 -93 36 -113 37
-24 85 -20 133 12 47 31 447 366 458 383 4 6 7 30 7 52 0 71 -79 119 -137 85z"/>
<path d="M4536 6395 c-63 -22 -108 -77 -222 -269 -123 -207 -215 -349 -252
-388 l-26 -28 -345 0 c-190 0 -375 -5 -411 -10 -86 -14 -195 -68 -254 -127
-67 -67 -117 -172 -127 -271 -4 -42 -6 -453 -4 -913 l3 -835 27 -80 c37 -111
85 -184 194 -297 397 -410 1075 -713 1739 -778 174 -17 582 -6 752 20 433 67
835 220 1190 455 354 234 534 433 590 651 19 75 20 110 20 921 0 575 -4 860
-11 896 -24 115 -105 233 -200 293 -20 14 -66 34 -101 47 -60 21 -79 22 -453
26 -347 3 -392 5 -409 20 -28 26 -81 107 -216 332 -145 244 -179 290 -234 321
l-41 24 -585 2 c-481 2 -592 0 -624 -12z m899 -420 c455 -102 827 -390 1020
-790 89 -184 128 -326 144 -525 31 -385 -100 -772 -364 -1073 -212 -243 -482
-397 -810 -464 -127 -25 -425 -25 -545 1 -468 101 -832 381 -1045 806 -223
444 -193 974 79 1399 215 335 582 578 983 651 89 16 139 19 288 15 112 -2 206
-10 250 -20z m-1928 -614 c51 -24 94 -84 100 -143 6 -55 -28 -124 -77 -156
-30 -20 -45 -23 -97 -20 -70 4 -103 23 -141 79 -20 29 -23 44 -20 94 4 74 30
114 90 144 53 26 90 26 145 2z m3385 9 c146 -41 175 -222 49 -307 -77 -52
-198 -16 -240 70 -47 97 -6 196 96 232 47 17 49 17 95 5z m-2787 -2274 c297
-161 750 -258 1130 -242 338 14 658 89 920 216 l120 59 228 3 c125 2 227 1
227 -2 0 -10 -154 -107 -279 -175 -203 -111 -386 -182 -626 -241 -193 -47
-326 -64 -567 -71 -479 -14 -868 63 -1280 250 -113 52 -398 220 -398 235 0 4
105 6 232 4 l233 -4 60 -32z"/>
<path d="M5378 5806 c-6 -14 -8 -31 -5 -39 3 -8 43 -27 89 -42 46 -14 128 -48
184 -74 409 -194 658 -547 706 -998 37 -355 -115 -742 -394 -997 -160 -148
-322 -233 -569 -300 -60 -17 -78 -41 -58 -78 13 -24 54 -23 159 3 415 105 771
444 909 864 49 151 65 274 58 454 -6 177 -30 294 -92 445 -142 352 -442 634
-798 751 -131 43 -173 45 -189 11z"/>
<path d="M4923 5636 c-282 -54 -520 -200 -687 -424 -105 -139 -169 -286 -202
-461 -24 -130 -15 -355 20 -480 56 -199 150 -359 300 -506 156 -155 317 -240
537 -285 147 -31 359 -25 504 14 182 49 347 141 484 271 213 201 326 445 338
731 7 155 -6 263 -47 386 -122 364 -410 635 -787 739 -100 27 -350 35 -460 15z
m352 -150 c312 -56 602 -286 715 -566 57 -140 74 -224 74 -375 0 -154 -16
-234 -73 -374 -85 -204 -274 -394 -467 -467 -138 -52 -305 -40 -454 32 -101
50 -224 171 -268 265 -38 80 -62 176 -61 249 l0 55 23 -70 c29 -89 48 -126
102 -197 101 -131 275 -218 435 -218 153 1 308 62 406 160 58 57 91 105 81
115 -3 3 -43 -15 -89 -39 -114 -60 -174 -76 -285 -76 -208 0 -363 90 -454 262
l-33 63 45 -46 c91 -93 198 -134 334 -127 101 5 185 43 257 114 64 65 92 124
92 198 0 76 -17 83 -46 17 -24 -57 -94 -127 -160 -163 -37 -19 -59 -23 -135
-23 -83 0 -94 2 -140 30 -70 44 -107 107 -108 188 -1 50 2 61 14 58 87 -20
160 6 197 74 30 53 29 99 -3 163 -85 170 -343 207 -539 77 -121 -81 -231 -253
-260 -408 -19 -101 -19 -254 0 -336 9 -35 14 -66 12 -68 -8 -8 -57 138 -73
218 -22 110 -15 275 16 374 95 301 341 501 651 530 87 8 178 -5 280 -40 41
-14 82 -28 92 -32 29 -9 20 24 -19 66 -79 88 -210 151 -357 171 -152 21 -355
-28 -518 -126 -99 -59 -231 -185 -284 -271 -41 -67 -50 -78 -35 -39 64 170
207 347 359 447 189 124 449 175 676 135z"/>
<path d="M2459 6331 c-35 -35 -41 -99 -11 -128 29 -30 416 -252 449 -259 35
-7 87 16 103 45 19 37 12 87 -17 118 -16 16 -118 79 -229 141 -224 125 -246
131 -295 83z"/>
<path d="M7685 6332 c-178 -100 -353 -207 -372 -228 -62 -68 10 -186 94 -156
47 16 417 232 436 254 28 33 23 94 -12 129 -38 37 -80 38 -146 1z"/>
<path d="M3450 6121 c-105 -33 -165 -108 -177 -221 l-6 -60 382 0 381 0 0 73
c-1 93 -24 146 -81 184 l-42 28 -216 2 c-119 1 -227 -2 -241 -6z"/>
<path d="M6350 6108 c-64 -33 -90 -87 -90 -190 l0 -78 385 0 385 0 0 49 c0 87
-44 165 -119 209 -46 27 -46 27 -281 30 -228 3 -236 2 -280 -20z"/>
<path d="M2474 5747 c-3 -9 -4 -24 -2 -34 3 -16 18 -18 151 -21 128 -2 148 0
154 14 12 32 -18 42 -159 49 -119 6 -139 5 -144 -8z"/>
<path d="M7555 5750 c-24 -4 -30 -10 -30 -30 l0 -25 142 0 c151 0 171 6 158
45 -7 21 -11 21 -124 18 -64 -2 -130 -5 -146 -8z"/>
<path d="M2420 5430 c-9 -16 -8 -25 1 -36 10 -12 39 -14 153 -12 138 3 141 4
144 26 2 12 -3 24 -10 26 -7 3 -72 7 -145 11 -127 6 -132 6 -143 -15z"/>
<path d="M7658 5443 c-66 -3 -78 -7 -83 -23 -4 -11 -3 -24 0 -30 4 -6 61 -10
140 -10 108 0 137 3 149 16 9 8 16 17 16 19 0 2 -7 11 -16 19 -16 16 -23 17
-206 9z"/>
<path d="M2422 5118 c-16 -16 -15 -23 4 -42 21 -21 249 -23 277 -2 21 16 22
42 1 50 -30 12 -269 7 -282 -6z"/>
<path d="M7579 5109 c-10 -19 -9 -25 7 -36 19 -14 155 -18 238 -7 43 6 47 9
44 33 l-3 26 -137 3 c-132 2 -137 2 -149 -19z"/>
<path d="M8376 4648 c-108 -722 -347 -1258 -781 -1748 -416 -470 -1057 -862
-1680 -1025 -183 -49 -196 -68 -144 -216 29 -82 33 -107 33 -194 0 -83 -5
-113 -27 -174 -44 -124 -28 -131 200 -80 531 119 1124 389 1537 701 355 269
632 556 881 913 292 419 514 966 604 1488 22 125 44 328 36 335 -2 2 -19 -5
-37 -17 -18 -11 -73 -41 -123 -66 -49 -25 -93 -49 -98 -54 -5 -5 -18 -59 -28
-120 -95 -579 -356 -1164 -725 -1626 -103 -129 -322 -356 -449 -465 -371 -318
-849 -589 -1300 -738 -108 -35 -233 -67 -238 -61 -3 2 -8 37 -11 77 -6 62 -5
72 9 72 28 0 336 106 449 155 615 264 1163 693 1516 1185 284 396 505 913 584
1366 22 123 21 139 -8 152 -14 6 -54 47 -91 91 -74 90 -101 102 -109 49z"/>
<path d="M5121 2036 c-28 -68 -83 -120 -187 -177 -187 -102 -278 -273 -246
-461 27 -153 112 -268 260 -347 98 -53 147 -97 177 -164 l23 -49 27 54 c37 73
67 102 164 156 129 72 204 157 247 281 55 155 11 344 -108 458 -18 17 -73 55
-123 83 -110 63 -135 86 -175 161 -17 32 -32 59 -34 59 -1 0 -12 -24 -25 -54z
m92 -338 c13 -14 33 -18 87 -18 l70 0 0 -61 c0 -61 0 -61 53 -110 28 -27 46
-49 40 -49 -7 0 -31 -16 -53 -36 -40 -36 -40 -37 -40 -109 l0 -73 -66 2 -65 1
-46 -48 -46 -49 -42 49 -43 48 -71 -1 -71 -2 7 70 6 69 -53 50 c-29 27 -48 49
-43 49 5 0 28 19 52 41 l43 41 -7 58 -7 57 60 -1 c70 -1 98 12 136 66 l29 40
26 -33 c14 -19 34 -42 44 -51z"/>
</g>
</svg>
